<svg width="180" height="180" viewBox="0 0 180 180" fill="none" xmlns="http://www.w3.org/2000/svg">
<path d="M161.1 100.301C159.174 98.8173 156.931 97.7992 154.547 97.326C152.162 96.8527 149.7 96.9372 147.354 97.5726L144.316 98.2758C159.609 84.0586 167.344 69.968 167.344 56.25C167.344 38.4187 153.007 23.9062 135.38 23.9062C130.408 23.8751 125.498 25.0026 121.039 27.1995C116.579 29.3964 112.693 32.6021 109.688 36.5625C106.682 32.6021 102.796 29.3964 98.3364 27.1995C93.8768 25.0026 88.9666 23.8751 83.9953 23.9062C66.368 23.9062 52.0312 38.4187 52.0312 56.25C52.0312 64.2515 54.5836 72.0633 59.9695 80.4094C55.5547 81.0903 51.474 83.1676 48.3258 86.3367L32.0063 102.656H11.25C8.63928 102.656 6.13548 103.693 4.28942 105.539C2.44336 107.385 1.40625 109.889 1.40625 112.5V140.625C1.40625 143.236 2.44336 145.74 4.28942 147.586C6.13548 149.432 8.63928 150.469 11.25 150.469H84.375C84.7211 150.469 85.0659 150.426 85.4016 150.342L130.402 139.092C130.615 139.036 130.824 138.965 131.027 138.881L158.323 127.266L158.555 127.16C160.968 125.955 163.035 124.155 164.56 121.93C166.086 119.706 167.02 117.129 167.275 114.444C167.529 111.758 167.096 109.052 166.016 106.58C164.936 104.108 163.244 101.952 161.1 100.315V100.301ZM83.9953 32.3437C88.635 32.2818 93.1876 33.6057 97.0706 36.1459C100.954 38.6861 103.99 42.3272 105.792 46.6031C106.11 47.3769 106.651 48.0387 107.346 48.5044C108.04 48.9702 108.858 49.2189 109.695 49.2189C110.531 49.2189 111.349 48.9702 112.043 48.5044C112.738 48.0387 113.279 47.3769 113.597 46.6031C115.399 42.3272 118.436 38.6861 122.318 36.1459C126.201 33.6057 130.754 32.2818 135.394 32.3437C148.134 32.3437 158.906 43.2914 158.906 56.25C158.906 70.4812 147.53 86.4844 126 102.48L115.545 104.885C116.587 102.119 116.943 99.1404 116.583 96.206C116.222 93.2715 115.154 90.4684 113.472 88.0369C111.79 85.6055 109.544 83.6183 106.925 82.2457C104.307 80.8731 101.394 80.1561 98.4375 80.1562H70.0805C63.5344 71.4867 60.4688 63.8508 60.4688 56.25C60.4688 43.2914 71.2406 32.3437 83.9953 32.3437ZM9.84375 140.625V112.5C9.84375 112.127 9.99191 111.769 10.2556 111.506C10.5194 111.242 10.877 111.094 11.25 111.094H29.5312V142.031H11.25C10.877 142.031 10.5194 141.883 10.2556 141.619C9.99191 141.356 9.84375 140.998 9.84375 140.625ZM154.884 119.531L128.025 130.971L83.8547 142.031H37.9688V108.626L54.2883 92.2992C55.461 91.1203 56.856 90.1858 58.3924 89.5497C59.9288 88.9137 61.5762 88.5887 63.2391 88.5937H98.4375C101.048 88.5937 103.552 89.6308 105.398 91.4769C107.244 93.323 108.281 95.8268 108.281 98.4375C108.281 101.048 107.244 103.552 105.398 105.398C103.552 107.244 101.048 108.281 98.4375 108.281H78.75C77.6311 108.281 76.5581 108.726 75.7669 109.517C74.9757 110.308 74.5312 111.381 74.5312 112.5C74.5312 113.619 74.9757 114.692 75.7669 115.483C76.5581 116.274 77.6311 116.719 78.75 116.719H101.25C101.567 116.719 101.883 116.684 102.192 116.613L149.302 105.778L149.47 105.736C151.243 105.253 153.133 105.441 154.775 106.266C156.417 107.091 157.697 108.493 158.369 110.204C159.04 111.915 159.056 113.813 158.413 115.535C157.769 117.256 156.513 118.68 154.884 119.531Z" fill="black"/>
</svg>
